<?xml version="1.0" encoding="UTF-8"?>
<svg xmlns="http://www.w3.org/2000/svg" viewBox="0 0 766.21 263.18">
  <path class="cls-1" d="M20.7,198.12c17.74,10.72,38.81,20.33,58.03,20.33,20.33,0,34.01-12.57,34.01-31.42,0-39.92-100.54-36.96-100.54-114.21C12.2,27.35,49.16,0,96.47,0c25.5,0,48.42,7.39,70.23,19.59l-19.59,38.81c-15.52-8.5-31.42-13.68-48.79-13.68-20.33,0-29.57,10.35-29.57,28.09,0,41.03,100.54,36.96,100.54,113.11,0,50.64-45.46,77.25-90.56,77.25-28.46,0-55.44-11.09-78.73-25.88l20.7-39.18Z"/>
  <path class="cls-1" d="M255.04,48.79h-59.88V4.07h173.73v44.73h-59.88v210.32h-53.97V48.79Z"/>
  <path class="cls-1" d="M603.94,2.73h75.77c46.2,0,86.49,28.83,86.49,81.69s-41.03,80.21-87.6,80.21h-20.7v93.15h-53.97V2.73ZM677.5,121.75c24.77,0,32.16-17,32.16-37.7s-6.65-36.59-31.05-36.59h-20.7v74.29h19.59Z"/>
  <g>
    <polygon class="cls-1" points="540.36 58.32 564.04 4.73 420.6 4.73 396.93 58.32 540.36 58.32"/>
    <polygon class="cls-1" points="540.36 159.05 564.04 105.46 420.6 105.46 396.93 159.05 540.36 159.05"/>
    <polygon class="cls-1" points="540.36 258.44 564.04 204.85 420.6 204.85 396.93 258.44 540.36 258.44"/>
  </g>
</svg>